<svg xmlns="http://www.w3.org/2000/svg" width="1920" height="1080"><path d="M842,1352L192,1367L1023,1368Z" fill="#5d5d5d" stroke="#5d5d5d" stroke-width="1.51"/><path d="M29,-304L320,-300L1409,-287Z" fill="#dfdfdf" stroke="#dfdfdf" stroke-width="1.51"/><path d="M663,-275L1078,-252L1409,-287Z" fill="#c2c2c2" stroke="#c2c2c2" stroke-width="1.51"/><path d="M320,-300L663,-275L1409,-287Z" fill="#d3d3d3" stroke="#d3d3d3" stroke-width="1.51"/><path d="M1340,1364L1023,1368L1697,1371Z" fill="#393939" stroke="#393939" stroke-width="1.51"/><path d="M1895,762L2100,962L2111,758Z" fill="#3d3d3d" stroke="#3d3d3d" stroke-width="1.51"/><path d="M2093,270L1961,398L2123,471Z" fill="#5c5c5c" stroke="#5c5c5c" stroke-width="1.51"/><path d="M1961,398L2050,632L2123,471Z" fill="#545454" stroke="#545454" stroke-width="1.51"/><path d="M2050,632L2111,758L2123,471Z" fill="#484848" stroke="#484848" stroke-width="1.51"/><path d="M1892,1274L1697,1371L2124,1380Z" fill="#1a1a1a" stroke="#1a1a1a" stroke-width="1.51"/><path d="M2064,1127L1892,1274L2124,1380Z" fill="#191919" stroke="#191919" stroke-width="1.51"/><path d="M2100,962L2064,1127L2124,1380Z" fill="#1e1e1e" stroke="#1e1e1e" stroke-width="1.51"/><path d="M2111,758L2100,962L2124,1380Z" fill="#292929" stroke="#292929" stroke-width="1.51"/><path d="M2123,471L2111,758L2124,1380Z" fill="#353535" stroke="#353535" stroke-width="1.51"/><path d="M2047,-208L2064,-67L2126,146Z" fill="#737373" stroke="#737373" stroke-width="1.51"/><path d="M2064,-67L1876,55L2126,146Z" fill="#737373" stroke="#737373" stroke-width="1.51"/><path d="M1893,283L2093,270L2126,146Z" fill="#686868" stroke="#686868" stroke-width="1.51"/><path d="M1876,55L1893,283L2126,146Z" fill="#707070" stroke="#707070" stroke-width="1.51"/><path d="M2093,270L2123,471L2126,146Z" fill="#5f5f5f" stroke="#5f5f5f" stroke-width="1.51"/><path d="M1892,1014L2064,1127L2100,962Z" fill="#2e2e2e" stroke="#2e2e2e" stroke-width="1.51"/><path d="M1895,762L1892,1014L2100,962Z" fill="#3b3b3b" stroke="#3b3b3b" stroke-width="1.51"/><path d="M2050,632L1895,762L2111,758Z" fill="#454545" stroke="#454545" stroke-width="1.51"/><path d="M1961,398L1902,644L2050,632Z" fill="#545454" stroke="#545454" stroke-width="1.51"/><path d="M1893,283L1961,398L2093,270Z" fill="#666666" stroke="#666666" stroke-width="1.51"/><path d="M1921,-253L1868,-82L2047,-208Z" fill="#808080" stroke="#808080" stroke-width="1.51"/><path d="M1902,644L1895,762L2050,632Z" fill="#4c4c4c" stroke="#4c4c4c" stroke-width="1.51"/><path d="M1886,1122L1892,1274L2064,1127Z" fill="#232323" stroke="#232323" stroke-width="1.51"/><path d="M1892,1014L1886,1122L2064,1127Z" fill="#2c2c2c" stroke="#2c2c2c" stroke-width="1.51"/><path d="M2047,-208L1868,-82L2064,-67Z" fill="#7c7c7c" stroke="#7c7c7c" stroke-width="1.51"/><path d="M1868,-82L1876,55L2064,-67Z" fill="#7b7b7b" stroke="#7b7b7b" stroke-width="1.51"/><path d="M1765,837L1892,1014L1895,762Z" fill="#454545" stroke="#454545" stroke-width="1.51"/><path d="M1893,283L1708,501L1961,398Z" fill="#686868" stroke="#686868" stroke-width="1.51"/><path d="M1801,637L1902,644L1961,398Z" fill="#585858" stroke="#585858" stroke-width="1.51"/><path d="M1708,501L1801,637L1961,398Z" fill="#616161" stroke="#616161" stroke-width="1.51"/><path d="M642,1324L192,1367L842,1352Z" fill="#646464" stroke="#646464" stroke-width="1.51"/><path d="M1886,1122L1782,1158L1892,1274Z" fill="#282828" stroke="#282828" stroke-width="1.51"/><path d="M1744,260L1708,501L1893,283Z" fill="#727272" stroke="#727272" stroke-width="1.51"/><path d="M1876,55L1744,260L1893,283Z" fill="#777777" stroke="#777777" stroke-width="1.51"/><path d="M1801,637L1895,762L1902,644Z" fill="#515151" stroke="#515151" stroke-width="1.51"/><path d="M1724,-283L1868,-82L1921,-253Z" fill="#898989" stroke="#898989" stroke-width="1.51"/><path d="M1724,-283L1744,-56L1868,-82Z" fill="#8c8c8c" stroke="#8c8c8c" stroke-width="1.51"/><path d="M1718,50L1744,260L1876,55Z" fill="#808080" stroke="#808080" stroke-width="1.51"/><path d="M1868,-82L1744,-56L1876,55Z" fill="#838383" stroke="#838383" stroke-width="1.51"/><path d="M1782,1158L1886,1122L1892,1014Z" fill="#313131" stroke="#313131" stroke-width="1.51"/><path d="M1765,837L1706,989L1892,1014Z" fill="#444444" stroke="#444444" stroke-width="1.51"/><path d="M1706,989L1782,1158L1892,1014Z" fill="#393939" stroke="#393939" stroke-width="1.51"/><path d="M1801,637L1765,837L1895,762Z" fill="#505050" stroke="#505050" stroke-width="1.51"/><path d="M1782,1158L1697,1371L1892,1274Z" fill="#262626" stroke="#262626" stroke-width="1.51"/><path d="M1744,-56L1718,50L1876,55Z" fill="#858585" stroke="#858585" stroke-width="1.51"/><path d="M1409,-287L1623,-246L1724,-283Z" fill="#a1a1a1" stroke="#a1a1a1" stroke-width="1.51"/><path d="M1724,-283L1623,-246L1744,-56Z" fill="#959595" stroke="#959595" stroke-width="1.51"/><path d="M1623,-246L1599,-113L1744,-56Z" fill="#979797" stroke="#979797" stroke-width="1.51"/><path d="M1551,434L1708,501L1744,260Z" fill="#777777" stroke="#777777" stroke-width="1.51"/><path d="M1576,594L1547,842L1765,837Z" fill="#5e5e5e" stroke="#5e5e5e" stroke-width="1.51"/><path d="M1564,1295L1697,1371L1782,1158Z" fill="#2d2d2d" stroke="#2d2d2d" stroke-width="1.51"/><path d="M1576,594L1765,837L1801,637Z" fill="#5c5c5c" stroke="#5c5c5c" stroke-width="1.51"/><path d="M1708,501L1576,594L1801,637Z" fill="#666666" stroke="#666666" stroke-width="1.51"/><path d="M1541,306L1551,434L1744,260Z" fill="#818181" stroke="#818181" stroke-width="1.51"/><path d="M1706,989L1521,1098L1782,1158Z" fill="#3f3f3f" stroke="#3f3f3f" stroke-width="1.51"/><path d="M1521,1098L1564,1295L1782,1158Z" fill="#383838" stroke="#383838" stroke-width="1.51"/><path d="M1718,50L1518,72L1744,260Z" fill="#8a8a8a" stroke="#8a8a8a" stroke-width="1.51"/><path d="M1518,72L1541,306L1744,260Z" fill="#8a8a8a" stroke="#8a8a8a" stroke-width="1.51"/><path d="M1590,952L1706,989L1765,837Z" fill="#4d4d4d" stroke="#4d4d4d" stroke-width="1.51"/><path d="M1547,842L1590,952L1765,837Z" fill="#555555" stroke="#555555" stroke-width="1.51"/><path d="M1564,1295L1340,1364L1697,1371Z" fill="#323232" stroke="#323232" stroke-width="1.51"/><path d="M1599,-113L1718,50L1744,-56Z" fill="#909090" stroke="#909090" stroke-width="1.51"/><path d="M1590,952L1521,1098L1706,989Z" fill="#4b4b4b" stroke="#4b4b4b" stroke-width="1.51"/><path d="M1599,-113L1518,72L1718,50Z" fill="#949494" stroke="#949494" stroke-width="1.51"/><path d="M1551,434L1576,594L1708,501Z" fill="#727272" stroke="#727272" stroke-width="1.51"/><path d="M1518,72L1399,244L1541,306Z" fill="#919191" stroke="#919191" stroke-width="1.51"/><path d="M1438,672L1547,842L1576,594Z" fill="#696969" stroke="#696969" stroke-width="1.51"/><path d="M1409,-287L1599,-113L1623,-246Z" fill="#a2a2a2" stroke="#a2a2a2" stroke-width="1.51"/><path d="M1355,-76L1435,69L1518,72Z" fill="#9e9e9e" stroke="#9e9e9e" stroke-width="1.51"/><path d="M1521,1098L1401,1126L1564,1295Z" fill="#414141" stroke="#414141" stroke-width="1.51"/><path d="M1551,434L1419,491L1576,594Z" fill="#797979" stroke="#797979" stroke-width="1.51"/><path d="M1355,-76L1518,72L1599,-113Z" fill="#9f9f9f" stroke="#9f9f9f" stroke-width="1.51"/><path d="M1409,-287L1355,-76L1599,-113Z" fill="#a6a6a6" stroke="#a6a6a6" stroke-width="1.51"/><path d="M1547,842L1357,950L1590,952Z" fill="#5a5a5a" stroke="#5a5a5a" stroke-width="1.51"/><path d="M1357,950L1521,1098L1590,952Z" fill="#545454" stroke="#545454" stroke-width="1.51"/><path d="M1435,69L1399,244L1518,72Z" fill="#989898" stroke="#989898" stroke-width="1.51"/><path d="M1419,491L1438,672L1576,594Z" fill="#757575" stroke="#757575" stroke-width="1.51"/><path d="M1438,672L1349,759L1547,842Z" fill="#696969" stroke="#696969" stroke-width="1.51"/><path d="M1541,306L1419,491L1551,434Z" fill="#828282" stroke="#828282" stroke-width="1.51"/><path d="M1401,1126L1340,1364L1564,1295Z" fill="#3d3d3d" stroke="#3d3d3d" stroke-width="1.51"/><path d="M1399,244L1419,491L1541,306Z" fill="#8a8a8a" stroke="#8a8a8a" stroke-width="1.51"/><path d="M1357,950L1401,1126L1521,1098Z" fill="#515151" stroke="#515151" stroke-width="1.51"/><path d="M1349,759L1357,950L1547,842Z" fill="#636363" stroke="#636363" stroke-width="1.51"/><path d="M29,-304L189,-294L320,-300Z" fill="#f1f1f1" stroke="#f1f1f1" stroke-width="1.51"/><path d="M1211,265L1239,435L1399,244Z" fill="#979797" stroke="#979797" stroke-width="1.51"/><path d="M1271,1297L1340,1364L1401,1126Z" fill="#414141" stroke="#414141" stroke-width="1.51"/><path d="M1259,1156L1271,1297L1401,1126Z" fill="#484848" stroke="#484848" stroke-width="1.51"/><path d="M1078,-252L1266,-192L1409,-287Z" fill="#b5b5b5" stroke="#b5b5b5" stroke-width="1.51"/><path d="M1266,-192L1355,-76L1409,-287Z" fill="#adadad" stroke="#adadad" stroke-width="1.51"/><path d="M1239,435L1213,681L1419,491Z" fill="#838383" stroke="#838383" stroke-width="1.51"/><path d="M1399,244L1239,435L1419,491Z" fill="#8d8d8d" stroke="#8d8d8d" stroke-width="1.51"/><path d="M1355,-76L1276,-24L1435,69Z" fill="#a5a5a5" stroke="#a5a5a5" stroke-width="1.51"/><path d="M1227,109L1399,244L1435,69Z" fill="#9d9d9d" stroke="#9d9d9d" stroke-width="1.51"/><path d="M1419,491L1213,681L1438,672Z" fill="#797979" stroke="#797979" stroke-width="1.51"/><path d="M1213,681L1349,759L1438,672Z" fill="#747474" stroke="#747474" stroke-width="1.51"/><path d="M1276,-24L1227,109L1435,69Z" fill="#a4a4a4" stroke="#a4a4a4" stroke-width="1.51"/><path d="M1357,950L1259,1156L1401,1126Z" fill="#535353" stroke="#535353" stroke-width="1.51"/><path d="M1225,961L1259,1156L1357,950Z" fill="#5c5c5c" stroke="#5c5c5c" stroke-width="1.51"/><path d="M1349,759L1218,824L1357,950Z" fill="#6a6a6a" stroke="#6a6a6a" stroke-width="1.51"/><path d="M1227,109L1211,265L1399,244Z" fill="#9e9e9e" stroke="#9e9e9e" stroke-width="1.51"/><path d="M1271,1297L1023,1368L1340,1364Z" fill="#414141" stroke="#414141" stroke-width="1.51"/><path d="M1266,-192L1276,-24L1355,-76Z" fill="#acacac" stroke="#acacac" stroke-width="1.51"/><path d="M1218,824L1225,961L1357,950Z" fill="#676767" stroke="#676767" stroke-width="1.51"/><path d="M1213,681L1218,824L1349,759Z" fill="#747474" stroke="#747474" stroke-width="1.51"/><path d="M1047,483L1213,681L1239,435Z" fill="#8a8a8a" stroke="#8a8a8a" stroke-width="1.51"/><path d="M1225,961L1103,1017L1259,1156Z" fill="#5f5f5f" stroke="#5f5f5f" stroke-width="1.51"/><path d="M1103,1017L1096,1165L1259,1156Z" fill="#5a5a5a" stroke="#5a5a5a" stroke-width="1.51"/><path d="M1078,-252L1017,-109L1266,-192Z" fill="#bababa" stroke="#bababa" stroke-width="1.51"/><path d="M1259,1156L1096,1165L1271,1297Z" fill="#4c4c4c" stroke="#4c4c4c" stroke-width="1.51"/><path d="M1266,-192L1017,-109L1276,-24Z" fill="#b4b4b4" stroke="#b4b4b4" stroke-width="1.51"/><path d="M1017,-109L1227,109L1276,-24Z" fill="#b0b0b0" stroke="#b0b0b0" stroke-width="1.51"/><path d="M1096,1165L1023,1368L1271,1297Z" fill="#4b4b4b" stroke="#4b4b4b" stroke-width="1.51"/><path d="M1017,-109L1064,146L1227,109Z" fill="#b1b1b1" stroke="#b1b1b1" stroke-width="1.51"/><path d="M1020,273L1047,483L1211,265Z" fill="#a0a0a0" stroke="#a0a0a0" stroke-width="1.51"/><path d="M1047,483L1007,684L1213,681Z" fill="#888888" stroke="#888888" stroke-width="1.51"/><path d="M1218,824L1103,1017L1225,961Z" fill="#6a6a6a" stroke="#6a6a6a" stroke-width="1.51"/><path d="M1064,146L1211,265L1227,109Z" fill="#a6a6a6" stroke="#a6a6a6" stroke-width="1.51"/><path d="M1211,265L1047,483L1239,435Z" fill="#979797" stroke="#979797" stroke-width="1.51"/><path d="M663,-275L861,-194L1078,-252Z" fill="#cccccc" stroke="#cccccc" stroke-width="1.51"/><path d="M1007,684L1001,793L1213,681Z" fill="#818181" stroke="#818181" stroke-width="1.51"/><path d="M1213,681L1001,793L1218,824Z" fill="#797979" stroke="#797979" stroke-width="1.51"/><path d="M1001,793L1103,1017L1218,824Z" fill="#737373" stroke="#737373" stroke-width="1.51"/><path d="M1064,146L1020,273L1211,265Z" fill="#a7a7a7" stroke="#a7a7a7" stroke-width="1.51"/><path d="M918,572L1007,684L1047,483Z" fill="#919191" stroke="#919191" stroke-width="1.51"/><path d="M1017,-109L868,55L1064,146Z" fill="#b9b9b9" stroke="#b9b9b9" stroke-width="1.51"/><path d="M920,1102L1023,1368L1096,1165Z" fill="#565656" stroke="#565656" stroke-width="1.51"/><path d="M1001,793L912,961L1103,1017Z" fill="#757575" stroke="#757575" stroke-width="1.51"/><path d="M920,1102L1096,1165L1103,1017Z" fill="#616161" stroke="#616161" stroke-width="1.51"/><path d="M912,961L920,1102L1103,1017Z" fill="#6c6c6c" stroke="#6c6c6c" stroke-width="1.51"/><path d="M920,1102L842,1352L1023,1368Z" fill="#565656" stroke="#565656" stroke-width="1.51"/><path d="M1020,273L891,503L1047,483Z" fill="#9f9f9f" stroke="#9f9f9f" stroke-width="1.51"/><path d="M861,-194L1017,-109L1078,-252Z" fill="#c3c3c3" stroke="#c3c3c3" stroke-width="1.51"/><path d="M894,220L1020,273L1064,146Z" fill="#aeaeae" stroke="#aeaeae" stroke-width="1.51"/><path d="M868,55L894,220L1064,146Z" fill="#b6b6b6" stroke="#b6b6b6" stroke-width="1.51"/><path d="M894,220L891,503L1020,273Z" fill="#aaaaaa" stroke="#aaaaaa" stroke-width="1.51"/><path d="M891,503L918,572L1047,483Z" fill="#989898" stroke="#989898" stroke-width="1.51"/><path d="M874,755L1001,793L1007,684Z" fill="#858585" stroke="#858585" stroke-width="1.51"/><path d="M829,-98L868,55L1017,-109Z" fill="#c2c2c2" stroke="#c2c2c2" stroke-width="1.51"/><path d="M874,755L912,961L1001,793Z" fill="#808080" stroke="#808080" stroke-width="1.51"/><path d="M861,-194L829,-98L1017,-109Z" fill="#c6c6c6" stroke="#c6c6c6" stroke-width="1.51"/><path d="M918,572L874,755L1007,684Z" fill="#8d8d8d" stroke="#8d8d8d" stroke-width="1.51"/><path d="M498,1291L192,1367L642,1324Z" fill="#6a6a6a" stroke="#6a6a6a" stroke-width="1.51"/><path d="M749,255L650,473L891,503Z" fill="#aeaeae" stroke="#aeaeae" stroke-width="1.51"/><path d="M749,255L891,503L894,220Z" fill="#b0b0b0" stroke="#b0b0b0" stroke-width="1.51"/><path d="M874,755L735,980L912,961Z" fill="#818181" stroke="#818181" stroke-width="1.51"/><path d="M696,654L874,755L918,572Z" fill="#949494" stroke="#949494" stroke-width="1.51"/><path d="M736,1097L842,1352L920,1102Z" fill="#636363" stroke="#636363" stroke-width="1.51"/><path d="M912,961L735,980L920,1102Z" fill="#757575" stroke="#757575" stroke-width="1.51"/><path d="M735,980L736,1097L920,1102Z" fill="#737373" stroke="#737373" stroke-width="1.51"/><path d="M891,503L696,654L918,572Z" fill="#9b9b9b" stroke="#9b9b9b" stroke-width="1.51"/><path d="M729,54L749,255L868,55Z" fill="#c1c1c1" stroke="#c1c1c1" stroke-width="1.51"/><path d="M645,844L735,980L874,755Z" fill="#898989" stroke="#898989" stroke-width="1.51"/><path d="M868,55L749,255L894,220Z" fill="#bababa" stroke="#bababa" stroke-width="1.51"/><path d="M736,1097L642,1324L842,1352Z" fill="#626262" stroke="#626262" stroke-width="1.51"/><path d="M650,473L696,654L891,503Z" fill="#a3a3a3" stroke="#a3a3a3" stroke-width="1.51"/><path d="M829,-98L729,54L868,55Z" fill="#c6c6c6" stroke="#c6c6c6" stroke-width="1.51"/><path d="M710,-58L729,54L829,-98Z" fill="#cbcbcb" stroke="#cbcbcb" stroke-width="1.51"/><path d="M696,654L645,844L874,755Z" fill="#929292" stroke="#929292" stroke-width="1.51"/><path d="M663,-275L829,-98L861,-194Z" fill="#d0d0d0" stroke="#d0d0d0" stroke-width="1.51"/><path d="M663,-275L710,-58L829,-98Z" fill="#d2d2d2" stroke="#d2d2d2" stroke-width="1.51"/><path d="M507,229L504,435L650,473Z" fill="#bcbcbc" stroke="#bcbcbc" stroke-width="1.51"/><path d="M663,-275L570,-215L710,-58Z" fill="#d9d9d9" stroke="#d9d9d9" stroke-width="1.51"/><path d="M519,1164L642,1324L736,1097Z" fill="#6d6d6d" stroke="#6d6d6d" stroke-width="1.51"/><path d="M507,229L650,473L749,255Z" fill="#bebebe" stroke="#bebebe" stroke-width="1.51"/><path d="M729,54L560,92L749,255Z" fill="#c7c7c7" stroke="#c7c7c7" stroke-width="1.51"/><path d="M560,92L507,229L749,255Z" fill="#c7c7c7" stroke="#c7c7c7" stroke-width="1.51"/><path d="M570,-215L564,-58L710,-58Z" fill="#d8d8d8" stroke="#d8d8d8" stroke-width="1.51"/><path d="M710,-58L564,-58L729,54Z" fill="#d0d0d0" stroke="#d0d0d0" stroke-width="1.51"/><path d="M469,926L519,1164L735,980Z" fill="#838383" stroke="#838383" stroke-width="1.51"/><path d="M735,980L519,1164L736,1097Z" fill="#797979" stroke="#797979" stroke-width="1.51"/><path d="M650,473L534,594L696,654Z" fill="#a8a8a8" stroke="#a8a8a8" stroke-width="1.51"/><path d="M564,-58L560,92L729,54Z" fill="#d0d0d0" stroke="#d0d0d0" stroke-width="1.51"/><path d="M645,844L469,926L735,980Z" fill="#8c8c8c" stroke="#8c8c8c" stroke-width="1.51"/><path d="M336,1286L192,1367L498,1291Z" fill="#6f6f6f" stroke="#6f6f6f" stroke-width="1.51"/><path d="M320,-300L570,-215L663,-275Z" fill="#e1e1e1" stroke="#e1e1e1" stroke-width="1.51"/><path d="M534,594L645,844L696,654Z" fill="#9e9e9e" stroke="#9e9e9e" stroke-width="1.51"/><path d="M534,594L496,852L645,844Z" fill="#9b9b9b" stroke="#9b9b9b" stroke-width="1.51"/><path d="M519,1164L498,1291L642,1324Z" fill="#6b6b6b" stroke="#6b6b6b" stroke-width="1.51"/><path d="M496,852L469,926L645,844Z" fill="#939393" stroke="#939393" stroke-width="1.51"/><path d="M504,435L534,594L650,473Z" fill="#b1b1b1" stroke="#b1b1b1" stroke-width="1.51"/><path d="M356,671L367,816L496,852Z" fill="#a1a1a1" stroke="#a1a1a1" stroke-width="1.51"/><path d="M374,326L504,435L507,229Z" fill="#c4c4c4" stroke="#c4c4c4" stroke-width="1.51"/><path d="M469,926L340,1004L519,1164Z" fill="#888888" stroke="#888888" stroke-width="1.51"/><path d="M340,1004L351,1124L519,1164Z" fill="#828282" stroke="#828282" stroke-width="1.51"/><path d="M356,671L496,852L534,594Z" fill="#a4a4a4" stroke="#a4a4a4" stroke-width="1.51"/><path d="M334,113L560,92L564,-58Z" fill="#d5d5d5" stroke="#d5d5d5" stroke-width="1.51"/><path d="M314,-75L334,113L564,-58Z" fill="#dcdcdc" stroke="#dcdcdc" stroke-width="1.51"/><path d="M314,-75L564,-58L570,-215Z" fill="#dedede" stroke="#dedede" stroke-width="1.51"/><path d="M320,-300L314,-75L570,-215Z" fill="#e4e4e4" stroke="#e4e4e4" stroke-width="1.51"/><path d="M334,113L507,229L560,92Z" fill="#d1d1d1" stroke="#d1d1d1" stroke-width="1.51"/><path d="M504,435L304,477L534,594Z" fill="#b6b6b6" stroke="#b6b6b6" stroke-width="1.51"/><path d="M304,477L356,671L534,594Z" fill="#b1b1b1" stroke="#b1b1b1" stroke-width="1.51"/><path d="M336,1286L498,1291L519,1164Z" fill="#707070" stroke="#707070" stroke-width="1.51"/><path d="M351,1124L336,1286L519,1164Z" fill="#777777" stroke="#777777" stroke-width="1.51"/><path d="M334,113L374,326L507,229Z" fill="#cfcfcf" stroke="#cfcfcf" stroke-width="1.51"/><path d="M374,326L304,477L504,435Z" fill="#c1c1c1" stroke="#c1c1c1" stroke-width="1.51"/><path d="M367,816L469,926L496,852Z" fill="#989898" stroke="#989898" stroke-width="1.51"/><path d="M367,816L340,1004L469,926Z" fill="#969696" stroke="#969696" stroke-width="1.51"/><path d="M203,-127L314,-75L320,-300Z" fill="#e8e8e8" stroke="#e8e8e8" stroke-width="1.51"/><path d="M131,1201L336,1286L351,1124Z" fill="#7b7b7b" stroke="#7b7b7b" stroke-width="1.51"/><path d="M304,477L219,571L356,671Z" fill="#b6b6b6" stroke="#b6b6b6" stroke-width="1.51"/><path d="M149,999L340,1004L367,816Z" fill="#989898" stroke="#989898" stroke-width="1.51"/><path d="M135,777L149,999L367,816Z" fill="#a1a1a1" stroke="#a1a1a1" stroke-width="1.51"/><path d="M356,671L135,777L367,816Z" fill="#a7a7a7" stroke="#a7a7a7" stroke-width="1.51"/><path d="M334,113L228,247L374,326Z" fill="#d2d2d2" stroke="#d2d2d2" stroke-width="1.51"/><path d="M228,247L304,477L374,326Z" fill="#cacaca" stroke="#cacaca" stroke-width="1.51"/><path d="M314,-75L170,120L334,113Z" fill="#dedede" stroke="#dedede" stroke-width="1.51"/><path d="M228,247L225,499L304,477Z" fill="#c6c6c6" stroke="#c6c6c6" stroke-width="1.51"/><path d="M189,-294L203,-127L320,-300Z" fill="#ececec" stroke="#ececec" stroke-width="1.51"/><path d="M340,1004L149,999L351,1124Z" fill="#8d8d8d" stroke="#8d8d8d" stroke-width="1.51"/><path d="M219,571L135,777L356,671Z" fill="#b0b0b0" stroke="#b0b0b0" stroke-width="1.51"/><path d="M149,999L131,1201L351,1124Z" fill="#878787" stroke="#878787" stroke-width="1.51"/><path d="M225,499L219,571L304,477Z" fill="#bcbcbc" stroke="#bcbcbc" stroke-width="1.51"/><path d="M170,120L228,247L334,113Z" fill="#d9d9d9" stroke="#d9d9d9" stroke-width="1.51"/><path d="M203,-127L170,120L314,-75Z" fill="#e4e4e4" stroke="#e4e4e4" stroke-width="1.51"/><path d="M131,1201L192,1367L336,1286Z" fill="#767676" stroke="#767676" stroke-width="1.51"/><path d="M-1,47L170,120L203,-127Z" fill="#e6e6e6" stroke="#e6e6e6" stroke-width="1.51"/><path d="M189,-294L29,-304L203,-127Z" fill="#f1f1f1" stroke="#f1f1f1" stroke-width="1.51"/><path d="M-53,678L135,777L219,571Z" fill="#b4b4b4" stroke="#b4b4b4" stroke-width="1.51"/><path d="M9,497L-53,678L219,571Z" fill="#bebebe" stroke="#bebebe" stroke-width="1.51"/><path d="M9,497L219,571L225,499Z" fill="#c0c0c0" stroke="#c0c0c0" stroke-width="1.51"/><path d="M40,271L9,497L225,499Z" fill="#cbcbcb" stroke="#cbcbcb" stroke-width="1.51"/><path d="M40,271L225,499L228,247Z" fill="#d0d0d0" stroke="#d0d0d0" stroke-width="1.51"/><path d="M170,120L40,271L228,247Z" fill="#d9d9d9" stroke="#d9d9d9" stroke-width="1.51"/><path d="M12,1109L131,1201L149,999Z" fill="#8c8c8c" stroke="#8c8c8c" stroke-width="1.51"/><path d="M-48,-58L-1,47L203,-127Z" fill="#ececec" stroke="#ececec" stroke-width="1.51"/><path d="M135,777L4,820L149,999Z" fill="#a5a5a5" stroke="#a5a5a5" stroke-width="1.51"/><path d="M131,1201L-21,1346L192,1367Z" fill="#787878" stroke="#787878" stroke-width="1.51"/><path d="M29,-304L-48,-58L203,-127Z" fill="#f0f0f0" stroke="#f0f0f0" stroke-width="1.51"/><path d="M4,820L-51,950L149,999Z" fill="#a2a2a2" stroke="#a2a2a2" stroke-width="1.51"/><path d="M-1,47L40,271L170,120Z" fill="#e0e0e0" stroke="#e0e0e0" stroke-width="1.51"/><path d="M-53,678L4,820L135,777Z" fill="#b0b0b0" stroke="#b0b0b0" stroke-width="1.51"/><path d="M-51,950L12,1109L149,999Z" fill="#989898" stroke="#989898" stroke-width="1.51"/><path d="M12,1109L-21,1346L131,1201Z" fill="#818181" stroke="#818181" stroke-width="1.51"/><path d="M-167,299L-157,490L9,497Z" fill="#d0d0d0" stroke="#d0d0d0" stroke-width="1.51"/><path d="M-129,1318L-21,1346L12,1109Z" fill="#808080" stroke="#808080" stroke-width="1.51"/><path d="M-199,1205L-129,1318L12,1109Z" fill="#858585" stroke="#858585" stroke-width="1.51"/><path d="M-157,-260L-48,-58L29,-304Z" fill="#f5f5f5" stroke="#f5f5f5" stroke-width="1.51"/><path d="M-1,47L-125,129L40,271Z" fill="#e3e3e3" stroke="#e3e3e3" stroke-width="1.51"/><path d="M-125,129L-167,299L40,271Z" fill="#dfdfdf" stroke="#dfdfdf" stroke-width="1.51"/><path d="M-167,299L9,497L40,271Z" fill="#d5d5d5" stroke="#d5d5d5" stroke-width="1.51"/><path d="M-181,608L-53,678L9,497Z" fill="#c0c0c0" stroke="#c0c0c0" stroke-width="1.51"/><path d="M-157,490L-181,608L9,497Z" fill="#c6c6c6" stroke="#c6c6c6" stroke-width="1.51"/><path d="M-148,849L-51,950L4,820Z" fill="#a8a8a8" stroke="#a8a8a8" stroke-width="1.51"/><path d="M-53,678L-148,849L4,820Z" fill="#b0b0b0" stroke="#b0b0b0" stroke-width="1.51"/><path d="M-51,950L-165,931L12,1109Z" fill="#9d9d9d" stroke="#9d9d9d" stroke-width="1.51"/><path d="M-165,931L-199,1205L12,1109Z" fill="#949494" stroke="#949494" stroke-width="1.51"/><path d="M-157,-260L-215,-104L-48,-58Z" fill="#f5f5f5" stroke="#f5f5f5" stroke-width="1.51"/><path d="M-48,-58L-125,129L-1,47Z" fill="#eaeaea" stroke="#eaeaea" stroke-width="1.51"/><path d="M-181,608L-148,849L-53,678Z" fill="#b7b7b7" stroke="#b7b7b7" stroke-width="1.51"/><path d="M-148,849L-165,931L-51,950Z" fill="#a7a7a7" stroke="#a7a7a7" stroke-width="1.51"/><path d="M-215,-104L-125,129L-48,-58Z" fill="#eeeeee" stroke="#eeeeee" stroke-width="1.51"/><path d="M-215,-104L-167,299L-125,129Z" fill="#e9e9e9" stroke="#e9e9e9" stroke-width="1.51"/><path d="M-181,608L-165,931L-148,849Z" fill="#b1b1b1" stroke="#b1b1b1" stroke-width="1.51"/><path d="M-167,299L-181,608L-157,490Z" fill="#cecece" stroke="#cecece" stroke-width="1.51"/><path d="M-181,608L-199,1205L-165,931Z" fill="#a7a7a7" stroke="#a7a7a7" stroke-width="1.51"/><path d="M-215,-104L-181,608L-167,299Z" fill="#dfdfdf" stroke="#dfdfdf" stroke-width="1.51"/><path d="M-215,-104L-199,1205L-181,608Z" fill="#c5c5c5" stroke="#c5c5c5" stroke-width="1.51"/></svg>