<svg xmlns="http://www.w3.org/2000/svg" width="1920" height="1080"><path d="M-85,-516L744,-461L1420,-514Z" fill="#e2b9da" stroke="#e2b9da" stroke-width="1.51"/><path d="M443,1597L-90,1659L1971,1596Z" fill="#a8456e" stroke="#a8456e" stroke-width="1.51"/><path d="M1416,1526L1066,1527L1971,1596Z" fill="#b01154" stroke="#b01154" stroke-width="1.51"/><path d="M1066,1527L443,1597L1971,1596Z" fill="#b12963" stroke="#b12963" stroke-width="1.51"/><path d="M1420,-514L1950,-390L2247,-353Z" fill="#dc899c" stroke="#dc899c" stroke-width="1.51"/><path d="M2247,-353L2015,-188L2308,109Z" fill="#bc708a" stroke="#bc708a" stroke-width="1.51"/><path d="M2256,252L1838,919L2402,864Z" fill="#bb2d6d" stroke="#bb2d6d" stroke-width="1.51"/><path d="M2308,109L2256,252L2402,864Z" fill="#ad4672" stroke="#ad4672" stroke-width="1.51"/><path d="M2180,1301L1971,1596L2455,1477Z" fill="#90003d" stroke="#90003d" stroke-width="1.51"/><path d="M2402,864L2180,1301L2455,1477Z" fill="#9c053f" stroke="#9c053f" stroke-width="1.51"/><path d="M2069,185L1838,919L2256,252Z" fill="#c0477d" stroke="#c0477d" stroke-width="1.51"/><path d="M1838,919L2180,1301L2402,864Z" fill="#b60d54" stroke="#b60d54" stroke-width="1.51"/><path d="M2069,185L2256,252L2308,109Z" fill="#b25a7f" stroke="#b25a7f" stroke-width="1.51"/><path d="M2015,-188L2069,185L2308,109Z" fill="#ba6688" stroke="#ba6688" stroke-width="1.51"/><path d="M1631,814L1838,919L2069,185Z" fill="#d23879" stroke="#d23879" stroke-width="1.51"/><path d="M1950,-390L2015,-188L2247,-353Z" fill="#ca7f95" stroke="#ca7f95" stroke-width="1.51"/><path d="M1756,1307L1971,1596L2180,1301Z" fill="#a40347" stroke="#a40347" stroke-width="1.51"/><path d="M1838,919L1756,1307L2180,1301Z" fill="#bc0c50" stroke="#bc0c50" stroke-width="1.51"/><path d="M1482,158L1631,814L2069,185Z" fill="#d55588" stroke="#d55588" stroke-width="1.51"/><path d="M2015,-188L1482,158L2069,185Z" fill="#ce6c8f" stroke="#ce6c8f" stroke-width="1.51"/><path d="M1950,-390L1402,-9L2015,-188Z" fill="#db7f99" stroke="#db7f99" stroke-width="1.51"/><path d="M1402,-9L1482,158L2015,-188Z" fill="#db769c" stroke="#db769c" stroke-width="1.51"/><path d="M1610,1106L1756,1307L1838,919Z" fill="#ce1357" stroke="#ce1357" stroke-width="1.51"/><path d="M1420,-514L1402,-9L1950,-390Z" fill="#e78ba9" stroke="#e78ba9" stroke-width="1.51"/><path d="M1756,1307L1416,1526L1971,1596Z" fill="#ae094a" stroke="#ae094a" stroke-width="1.51"/><path d="M1482,158L1299,628L1631,814Z" fill="#e14a95" stroke="#e14a95" stroke-width="1.51"/><path d="M1631,814L1610,1106L1838,919Z" fill="#d81b68" stroke="#d81b68" stroke-width="1.51"/><path d="M1250,-322L1402,-9L1420,-514Z" fill="#ec8fb9" stroke="#ec8fb9" stroke-width="1.51"/><path d="M1610,1106L1416,1526L1756,1307Z" fill="#c11159" stroke="#c11159" stroke-width="1.51"/><path d="M1250,-322L1305,-69L1402,-9Z" fill="#e686b5" stroke="#e686b5" stroke-width="1.51"/><path d="M1129,1100L1416,1526L1610,1106Z" fill="#cf1a69" stroke="#cf1a69" stroke-width="1.51"/><path d="M1129,1100L1610,1106L1631,814Z" fill="#dc2073" stroke="#dc2073" stroke-width="1.51"/><path d="M1299,628L1129,1100L1631,814Z" fill="#e72988" stroke="#e72988" stroke-width="1.51"/><path d="M1129,1100L1066,1527L1416,1526Z" fill="#c1296d" stroke="#c1296d" stroke-width="1.51"/><path d="M987,410L1299,628L1482,158Z" fill="#df61a7" stroke="#df61a7" stroke-width="1.51"/><path d="M1402,-9L1305,-69L1482,158Z" fill="#e078ab" stroke="#e078ab" stroke-width="1.51"/><path d="M1305,-69L948,81L1482,158Z" fill="#de7cb3" stroke="#de7cb3" stroke-width="1.51"/><path d="M948,81L987,410L1482,158Z" fill="#d977b3" stroke="#d977b3" stroke-width="1.51"/><path d="M744,-461L1250,-322L1420,-514Z" fill="#eda0c7" stroke="#eda0c7" stroke-width="1.51"/><path d="M887,802L1129,1100L1299,628Z" fill="#e54195" stroke="#e54195" stroke-width="1.51"/><path d="M1250,-322L948,81L1305,-69Z" fill="#e28bbc" stroke="#e28bbc" stroke-width="1.51"/><path d="M987,410L887,802L1299,628Z" fill="#e259a6" stroke="#e259a6" stroke-width="1.51"/><path d="M843,1248L1066,1527L1129,1100Z" fill="#c93b79" stroke="#c93b79" stroke-width="1.51"/><path d="M744,-461L948,81L1250,-322Z" fill="#e39ecb" stroke="#e39ecb" stroke-width="1.51"/><path d="M948,81L871,185L987,410Z" fill="#d581bc" stroke="#d581bc" stroke-width="1.51"/><path d="M594,1457L443,1597L1066,1527Z" fill="#ae4c76" stroke="#ae4c76" stroke-width="1.51"/><path d="M887,802L843,1248L1129,1100Z" fill="#dc4789" stroke="#dc4789" stroke-width="1.51"/><path d="M744,-461L465,-131L948,81Z" fill="#d8a7d0" stroke="#d8a7d0" stroke-width="1.51"/><path d="M843,1248L594,1457L1066,1527Z" fill="#bb467a" stroke="#bb467a" stroke-width="1.51"/><path d="M459,512L887,802L987,410Z" fill="#db6fb3" stroke="#db6fb3" stroke-width="1.51"/><path d="M871,185L459,512L987,410Z" fill="#d580bc" stroke="#d580bc" stroke-width="1.51"/><path d="M461,826L843,1248L887,802Z" fill="#db5b97" stroke="#db5b97" stroke-width="1.51"/><path d="M465,-131L871,185L948,81Z" fill="#d497c8" stroke="#d497c8" stroke-width="1.51"/><path d="M459,512L461,826L887,802Z" fill="#da70af" stroke="#da70af" stroke-width="1.51"/><path d="M465,-131L459,512L871,185Z" fill="#cb96c8" stroke="#cb96c8" stroke-width="1.51"/><path d="M276,989L594,1457L843,1248Z" fill="#c75e88" stroke="#c75e88" stroke-width="1.51"/><path d="M461,826L276,989L843,1248Z" fill="#d66697" stroke="#d66697" stroke-width="1.51"/><path d="M239,-266L465,-131L744,-461Z" fill="#d8bbdb" stroke="#d8bbdb" stroke-width="1.51"/><path d="M-85,-516L239,-266L744,-461Z" fill="#decae3" stroke="#decae3" stroke-width="1.51"/><path d="M140,515L459,512L465,-131Z" fill="#cf9bca" stroke="#cf9bca" stroke-width="1.51"/><path d="M168,1132L443,1597L594,1457Z" fill="#ba6186" stroke="#ba6186" stroke-width="1.51"/><path d="M276,989L168,1132L594,1457Z" fill="#cf6a8f" stroke="#cf6a8f" stroke-width="1.51"/><path d="M168,1132L-90,1659L443,1597Z" fill="#b86a87" stroke="#b86a87" stroke-width="1.51"/><path d="M-1,654L276,989L461,826Z" fill="#e27bb0" stroke="#e27bb0" stroke-width="1.51"/><path d="M140,515L-1,654L461,826Z" fill="#df88bc" stroke="#df88bc" stroke-width="1.51"/><path d="M459,512L140,515L461,826Z" fill="#db84bc" stroke="#db84bc" stroke-width="1.51"/><path d="M239,-266L-180,-56L465,-131Z" fill="#d8c0de" stroke="#d8c0de" stroke-width="1.51"/><path d="M-180,-56L140,515L465,-131Z" fill="#d2b1d6" stroke="#d2b1d6" stroke-width="1.51"/><path d="M-180,-56L-248,287L140,515Z" fill="#d6b4d8" stroke="#d6b4d8" stroke-width="1.51"/><path d="M-1,654L168,1132L276,989Z" fill="#e17da9" stroke="#e17da9" stroke-width="1.51"/><path d="M-323,1507L-90,1659L168,1132Z" fill="#c27890" stroke="#c27890" stroke-width="1.51"/><path d="M-85,-516L-238,-360L239,-266Z" fill="#e4d9ea" stroke="#e4d9ea" stroke-width="1.51"/><path d="M-238,-360L-180,-56L239,-266Z" fill="#e0d2e7" stroke="#e0d2e7" stroke-width="1.51"/><path d="M-524,718L-578,1207L-1,654Z" fill="#f196ba" stroke="#f196ba" stroke-width="1.51"/><path d="M-1,654L-578,1207L168,1132Z" fill="#e78aa9" stroke="#e78aa9" stroke-width="1.51"/><path d="M-578,1207L-323,1507L168,1132Z" fill="#d5859a" stroke="#d5859a" stroke-width="1.51"/><path d="M-248,287L-1,654L140,515Z" fill="#e0a1cd" stroke="#e0a1cd" stroke-width="1.51"/><path d="M-248,287L-524,718L-1,654Z" fill="#e8a6cf" stroke="#e8a6cf" stroke-width="1.51"/><path d="M-238,-360L-288,-106L-180,-56Z" fill="#e2d6e9" stroke="#e2d6e9" stroke-width="1.51"/><path d="M-524,718L-288,-106L-238,-360Z" fill="#dec8e2" stroke="#dec8e2" stroke-width="1.51"/><path d="M-288,-106L-248,287L-180,-56Z" fill="#ddc8e2" stroke="#ddc8e2" stroke-width="1.51"/><path d="M-288,-106L-524,718L-248,287Z" fill="#dfbadb" stroke="#dfbadb" stroke-width="1.51"/></svg>